{"title":"Ulrich Seidl - Paradies: Liebe (2012) DVDRip XviD","uid":7866429,"size":1911415171,"categoryP":"video","categoryS":"movies","magnet":"?xt=urn:btih:3bc581e8dcdc2ad42f2920af69d0226248379742&amp;dn=Ulrich+Seidl+-+Paradies%3A+Liebe+%282012%29+DVDRip+XviD&amp;tr=udp%3A%2F%2Ftracker.openbittorrent.com%3A80&amp;tr=udp%3A%2F%2Fopen.demonii.com%3A1337&amp;tr=udp%3A%2F%2Ftracker.coppersurfer.tk%3A6969&amp;tr=udp%3A%2F%2Fexodus.desync.com%3A6969","seeders":9,"leechers":0,"uploader":"rpessoa","files":3,"time":1354076711,"description":"The premiere of the first part of Ulrich Seidls PARADISE trilogy was celebrated in this year's competition of the Cannes Film Festival with great success. The film tells the story of Teresa (Margarethe Tiesel), a 50-year-old Austrian from Vienna who travels as a sex tourist to Kenya in search of love. On the beaches of Kenya theyÂ´re known as Sugar Mamas: European women to whom black beach boys offer sex to earn a living. The movie of Ulrich Seidl deals about older women and young men, the market value of sexuality, the power of skin color, Europe and Africa, and the exploited, who have no choice but to victimize other victims.\n\nPARADISE: Love is the opener in a trilogy about three women in one family who take separate vacations: one as a sex tourist, another as a Catholic missionary (PARADISE: Faith) and the third at a diet camp for teenagers (PARADISE: Hope.) Three films, three women, three stories of longing.\n\nGeneral \nComplete name : Ulrich Seidl - Paradies Liebe (2012)Paradies.avi \nFormat : AVI \nFormat/Info : Audio Video Interleave \nFile size : 1.77 GiB \nDuration : 2h 0mn \nOverall bit rate : 2 105 Kbps \nWriting application : VirtualDubMod 1.5.10.2 (build 2540/release) \nWriting library : VirtualDubMod build 2540/release \n\nVideo \nID : 0 \nFormat : MPEG-4 Visual \nFormat profile : Advanced Simple@L5 \nFormat settings, BVOP : 1 \nFormat settings, QPel : No \nFormat settings, GMC : No warppoints \nFormat settings, Matrix : Default (MPEG) \nCodec ID : XVID \nCodec ID/Hint : XviD \nDuration : 2h 0mn \nBit rate : 1 840 Kbps \nWidth : 704 pixels \nHeight : 384 pixels \nDisplay aspect ratio : 1.85:1 \nFrame rate : 23.976 fps \nColor space : YUV \nChroma subsampling : 4:2:0 \nBit depth : 8 bits \nScan type : Progressive \nCompression mode : Lossy \nBits/(Pixel*Frame) : 0.284 \nStream size : 1.55 GiB (87%) \nWriting library : XviD 64 \n\nAudio \nID : 1 \nFormat : MPEG Audio \nFormat version : Version 1 \nFormat profile : Layer 3 \nMode : Joint stereo \nMode extension : MS Stereo \nCodec ID : 55 \nCodec ID/Hint : MP3 \nDuration : 2h 0mn \nBit rate mode : Constant \nBit rate : 256 Kbps \nChannel(s) : 2 channels \nSampling rate : 48.0 KHz \nCompression mode : Lossy \nStream size : 221 MiB (12%) \nAlignment : Aligned on interleaves \nInterleave, duration : 42 ms (1.00 video frame) \nInterleave, preload duration : 504 ms \n\nSubs: English and russian\n\nMy rip.\n\n","torrent":{"xt":"urn:btih:3bc581e8dcdc2ad42f2920af69d0226248379742","amp;dn":"Ulrich+Seidl+-+Paradies%3A+Liebe+%282012%29+DVDRip+XviD","amp;tr":["udp%3A%2F%2Ftracker.openbittorrent.com%3A80","udp%3A%2F%2Fopen.demonii.com%3A1337","udp%3A%2F%2Ftracker.coppersurfer.tk%3A6969","udp%3A%2F%2Fexodus.desync.com%3A6969"],"infoHash":"3bc581e8dcdc2ad42f2920af69d0226248379742","infoHashBuffer":{"type":"Buffer","data":[59,197,129,232,220,220,42,212,47,41,32,175,105,208,34,98,72,55,151,66]},"announce":[],"urlList":[]}}